<svg id="svg" version="1.1" xmlns="http://www.w3.org/2000/svg" xmlns:xlink="http://www.w3.org/1999/xlink" width="400" height="400" viewBox="0, 0, 400,400"><g id="svgg"><path id="path0" d="M227.111 182.824 L 169.638 236.994 164.611 232.016 C 161.846 229.279,148.146 215.686,134.167 201.810 L 108.750 176.581 97.156 188.360 C 90.780 194.838,85.561 200.210,85.559 200.297 C 85.557 200.384,88.961 203.822,93.124 207.936 C 97.286 212.050,115.983 230.604,134.673 249.167 C 153.363 267.729,168.808 282.917,168.997 282.917 C 169.185 282.917,176.703 275.979,185.703 267.500 C 216.061 238.898,226.479 229.084,242.783 213.733 C 251.718 205.321,264.793 193.008,271.840 186.372 C 278.887 179.735,289.782 169.493,296.053 163.611 C 302.323 157.729,307.464 152.821,307.477 152.705 C 307.506 152.435,285.033 128.604,284.776 128.633 C 284.670 128.644,258.721 153.031,227.111 182.824 " stroke="none" fill="#f3f3f3" fill-rule="evenodd"></path><path id="path1" d="M186.389 0.310 C 72.149 8.583,-11.154 108.396,1.123 222.293 C 10.629 310.483,78.869 382.697,166.528 397.331 C 297.976 419.274,413.178 310.381,398.877 177.707 C 387.466 71.842,292.572 -7.380,186.389 0.310 M295.471 139.514 C 301.267 145.663,306.410 151.152,306.900 151.711 L 307.791 152.727 238.974 217.544 C 201.125 253.193,169.860 282.598,169.497 282.888 L 168.837 283.415 149.905 264.543 C 139.492 254.163,120.687 235.450,108.115 222.957 L 85.259 200.244 96.820 188.525 C 103.179 182.079,108.527 176.772,108.705 176.731 C 108.882 176.690,122.628 190.167,139.251 206.680 C 155.873 223.193,169.574 236.664,169.697 236.616 C 169.819 236.567,195.766 212.184,227.355 182.431 C 258.945 152.677,284.823 128.333,284.862 128.333 C 284.901 128.333,289.675 133.365,295.471 139.514 " stroke="none" fill="#4cac53" fill-rule="evenodd"></path><path id="path2" d="M142.217 209.792 C 143.819 211.434,145.162 212.778,145.203 212.778 C 145.404 212.778,145.065 212.422,142.292 209.717 L 139.306 206.806 142.217 209.792 M117.361 232.222 C 118.883 233.750,120.191 235.000,120.267 235.000 C 120.344 235.000,119.161 233.750,117.639 232.222 C 116.117 230.694,114.809 229.444,114.733 229.444 C 114.656 229.444,115.839 230.694,117.361 232.222 M157.639 272.222 C 159.161 273.750,160.469 275.000,160.545 275.000 C 160.622 275.000,159.439 273.750,157.917 272.222 C 156.395 270.694,155.087 269.444,155.010 269.444 C 154.934 269.444,156.117 270.694,157.639 272.222 " stroke="none" fill="#8cc98d" fill-rule="evenodd"></path><path id="path3" d="M284.722 128.420 C 284.722 128.468,285.128 128.874,285.625 129.323 L 286.528 130.139 285.712 129.236 C 284.951 128.395,284.722 128.206,284.722 128.420 M280.677 132.292 L 279.861 133.194 280.764 132.379 C 281.260 131.930,281.667 131.524,281.667 131.476 C 281.667 131.261,281.437 131.450,280.677 132.292 M290.000 134.028 C 290.518 134.563,291.005 135.000,291.081 135.000 C 291.158 135.000,290.796 134.563,290.278 134.028 C 289.760 133.493,289.273 133.056,289.197 133.056 C 289.120 133.056,289.482 133.493,290.000 134.028 M275.955 136.736 L 275.139 137.639 276.042 136.823 C 276.538 136.374,276.944 135.968,276.944 135.920 C 276.944 135.706,276.715 135.895,275.955 136.736 M293.889 138.142 C 293.889 138.190,294.295 138.597,294.792 139.045 L 295.694 139.861 294.879 138.958 C 294.118 138.117,293.889 137.928,293.889 138.142 M298.333 142.865 C 298.333 142.913,298.740 143.319,299.236 143.767 L 300.139 144.583 299.323 143.681 C 298.563 142.839,298.333 142.650,298.333 142.865 M266.233 145.903 L 265.417 146.806 266.319 145.990 C 267.161 145.229,267.350 145.000,267.135 145.000 C 267.087 145.000,266.681 145.406,266.233 145.903 M302.778 147.587 C 302.778 147.635,303.184 148.041,303.681 148.490 L 304.583 149.306 303.767 148.403 C 303.007 147.561,302.778 147.372,302.778 147.587 M261.510 150.347 L 260.694 151.250 261.597 150.434 C 262.094 149.985,262.500 149.579,262.500 149.531 C 262.500 149.317,262.271 149.506,261.510 150.347 M306.233 153.958 L 305.417 154.861 306.319 154.045 C 307.161 153.285,307.350 153.056,307.135 153.056 C 307.087 153.056,306.681 153.462,306.233 153.958 M256.788 154.792 L 255.972 155.694 256.875 154.879 C 257.372 154.430,257.778 154.024,257.778 153.976 C 257.778 153.761,257.549 153.950,256.788 154.792 M301.510 158.403 L 300.694 159.306 301.597 158.490 C 302.439 157.729,302.628 157.500,302.413 157.500 C 302.365 157.500,301.959 157.906,301.510 158.403 M252.066 159.236 L 251.250 160.139 252.153 159.323 C 252.649 158.874,253.056 158.468,253.056 158.420 C 253.056 158.206,252.826 158.395,252.066 159.236 M296.788 162.847 L 295.972 163.750 296.875 162.934 C 297.717 162.174,297.905 161.944,297.691 161.944 C 297.643 161.944,297.237 162.351,296.788 162.847 M247.344 163.681 L 246.528 164.583 247.431 163.767 C 247.927 163.319,248.333 162.913,248.333 162.865 C 248.333 162.650,248.104 162.839,247.344 163.681 M292.066 167.292 L 291.250 168.194 292.153 167.379 C 292.994 166.618,293.183 166.389,292.969 166.389 C 292.921 166.389,292.515 166.795,292.066 167.292 M237.621 172.847 L 236.806 173.750 237.708 172.934 C 238.550 172.174,238.739 171.944,238.524 171.944 C 238.476 171.944,238.070 172.351,237.621 172.847 M282.621 176.181 L 281.806 177.083 282.708 176.267 C 283.205 175.819,283.611 175.413,283.611 175.365 C 283.611 175.150,283.382 175.339,282.621 176.181 M232.899 177.292 L 232.083 178.194 232.986 177.379 C 233.483 176.930,233.889 176.524,233.889 176.476 C 233.889 176.261,233.660 176.450,232.899 177.292 M113.611 181.528 C 116.281 184.201,118.529 186.389,118.605 186.389 C 118.682 186.389,116.559 184.201,113.889 181.528 C 111.219 178.854,108.971 176.667,108.895 176.667 C 108.818 176.667,110.941 178.854,113.611 181.528 M277.621 180.903 L 276.806 181.806 277.708 180.990 C 278.205 180.541,278.611 180.135,278.611 180.087 C 278.611 179.872,278.382 180.061,277.621 180.903 M228.177 181.736 L 227.361 182.639 228.264 181.823 C 228.760 181.374,229.167 180.968,229.167 180.920 C 229.167 180.706,228.937 180.895,228.177 181.736 M272.899 185.347 L 272.083 186.250 272.986 185.434 C 273.828 184.674,274.017 184.444,273.802 184.444 C 273.754 184.444,273.348 184.851,272.899 185.347 M223.455 186.181 L 222.639 187.083 223.542 186.267 C 224.038 185.819,224.444 185.413,224.444 185.365 C 224.444 185.150,224.215 185.339,223.455 186.181 M268.177 189.792 L 267.361 190.694 268.264 189.879 C 269.105 189.118,269.294 188.889,269.080 188.889 C 269.032 188.889,268.626 189.295,268.177 189.792 M218.733 190.625 L 217.917 191.528 218.819 190.712 C 219.316 190.263,219.722 189.857,219.722 189.809 C 219.722 189.595,219.493 189.783,218.733 190.625 M89.580 195.903 L 85.139 200.417 89.653 195.975 C 92.135 193.533,94.167 191.502,94.167 191.462 C 94.167 191.263,93.706 191.709,89.580 195.903 M263.455 194.236 L 262.639 195.139 263.542 194.323 C 264.038 193.874,264.444 193.468,264.444 193.420 C 264.444 193.206,264.215 193.395,263.455 194.236 M209.010 199.792 L 208.194 200.694 209.097 199.879 C 209.594 199.430,210.000 199.024,210.000 198.976 C 210.000 198.761,209.771 198.950,209.010 199.792 M254.010 203.125 L 253.194 204.028 254.097 203.212 C 254.594 202.763,255.000 202.357,255.000 202.309 C 255.000 202.095,254.771 202.283,254.010 203.125 M204.288 204.236 L 203.472 205.139 204.375 204.323 C 204.872 203.874,205.278 203.468,205.278 203.420 C 205.278 203.206,205.049 203.395,204.288 204.236 M249.010 207.847 L 248.194 208.750 249.097 207.934 C 249.594 207.485,250.000 207.079,250.000 207.031 C 250.000 206.817,249.771 207.006,249.010 207.847 M199.566 208.681 L 198.750 209.583 199.653 208.767 C 200.149 208.319,200.556 207.913,200.556 207.865 C 200.556 207.650,200.326 207.839,199.566 208.681 M244.288 212.292 L 243.472 213.194 244.375 212.379 C 244.872 211.930,245.278 211.524,245.278 211.476 C 245.278 211.261,245.049 211.450,244.288 212.292 M194.844 213.125 L 194.028 214.028 194.931 213.212 C 195.427 212.763,195.833 212.357,195.833 212.309 C 195.833 212.095,195.604 212.283,194.844 213.125 M151.806 219.444 C 155.470 223.111,158.530 226.111,158.607 226.111 C 158.683 226.111,155.748 223.111,152.083 219.444 C 148.419 215.778,145.359 212.778,145.282 212.778 C 145.206 212.778,148.141 215.778,151.806 219.444 M107.222 222.083 C 111.269 226.132,114.642 229.444,114.718 229.444 C 114.795 229.444,111.546 226.132,107.500 222.083 C 103.454 218.035,100.080 214.722,100.004 214.722 C 99.928 214.722,103.176 218.035,107.222 222.083 M239.566 216.736 L 238.750 217.639 239.653 216.823 C 240.149 216.374,240.556 215.968,240.556 215.920 C 240.556 215.706,240.326 215.895,239.566 216.736 M190.121 217.569 L 189.306 218.472 190.208 217.656 C 190.705 217.208,191.111 216.801,191.111 216.754 C 191.111 216.539,190.882 216.728,190.121 217.569 M234.844 221.181 L 234.028 222.083 234.931 221.267 C 235.772 220.507,235.961 220.278,235.746 220.278 C 235.699 220.278,235.292 220.684,234.844 221.181 M180.399 226.736 L 179.583 227.639 180.486 226.823 C 180.983 226.374,181.389 225.968,181.389 225.920 C 181.389 225.706,181.160 225.895,180.399 226.736 M225.399 230.069 L 224.583 230.972 225.486 230.156 C 225.983 229.708,226.389 229.301,226.389 229.254 C 226.389 229.039,226.160 229.228,225.399 230.069 M175.677 231.181 L 174.861 232.083 175.764 231.267 C 176.260 230.819,176.667 230.413,176.667 230.365 C 176.667 230.150,176.437 230.339,175.677 231.181 M220.541 234.653 L 219.583 235.694 220.625 234.737 C 221.595 233.846,221.794 233.611,221.582 233.611 C 221.536 233.611,221.067 234.080,220.541 234.653 M170.955 235.625 L 170.139 236.528 171.042 235.712 C 171.538 235.263,171.944 234.857,171.944 234.809 C 171.944 234.595,171.715 234.783,170.955 235.625 M215.677 239.236 L 214.861 240.139 215.764 239.323 C 216.260 238.874,216.667 238.468,216.667 238.420 C 216.667 238.206,216.437 238.395,215.677 239.236 M210.955 243.681 L 210.139 244.583 211.042 243.767 C 211.538 243.319,211.944 242.913,211.944 242.865 C 211.944 242.650,211.715 242.839,210.955 243.681 M206.233 248.125 L 205.417 249.028 206.319 248.212 C 206.816 247.763,207.222 247.357,207.222 247.309 C 207.222 247.095,206.993 247.283,206.233 248.125 M147.500 262.083 C 151.546 266.132,154.920 269.444,154.996 269.444 C 155.072 269.444,151.824 266.132,147.778 262.083 C 143.731 258.035,140.358 254.722,140.282 254.722 C 140.205 254.722,143.454 258.035,147.500 262.083 M196.788 257.014 L 195.972 257.917 196.875 257.101 C 197.372 256.652,197.778 256.246,197.778 256.198 C 197.778 255.983,197.549 256.172,196.788 257.014 M191.929 261.597 L 190.972 262.639 192.014 261.682 C 192.983 260.791,193.183 260.556,192.971 260.556 C 192.925 260.556,192.456 261.024,191.929 261.597 M187.066 266.181 L 186.250 267.083 187.153 266.267 C 187.649 265.819,188.056 265.413,188.056 265.365 C 188.056 265.150,187.826 265.339,187.066 266.181 M182.344 270.625 L 181.528 271.528 182.431 270.712 C 182.927 270.263,183.333 269.857,183.333 269.809 C 183.333 269.595,183.104 269.783,182.344 270.625 M177.621 275.069 L 176.806 275.972 177.708 275.156 C 178.205 274.708,178.611 274.301,178.611 274.254 C 178.611 274.039,178.382 274.228,177.621 275.069 " stroke="none" fill="#a4d4a4" fill-rule="evenodd"></path><path id="path4" d="M105.551 179.653 L 102.639 182.639 105.625 179.727 C 107.267 178.126,108.611 176.782,108.611 176.741 C 108.611 176.540,108.255 176.879,105.551 179.653 M133.056 200.694 C 136.491 204.132,139.363 206.944,139.440 206.944 C 139.516 206.944,136.768 204.132,133.333 200.694 C 129.898 197.257,127.025 194.444,126.949 194.444 C 126.873 194.444,129.621 197.257,133.056 200.694 M256.510 200.903 L 255.694 201.806 256.597 200.990 C 257.094 200.541,257.500 200.135,257.500 200.087 C 257.500 199.872,257.271 200.061,256.510 200.903 M87.917 203.056 C 89.439 204.583,90.747 205.833,90.823 205.833 C 90.899 205.833,89.716 204.583,88.194 203.056 C 86.672 201.528,85.365 200.278,85.288 200.278 C 85.212 200.278,86.395 201.528,87.917 203.056 M168.322 235.625 C 169.003 236.351,169.597 236.944,169.641 236.944 C 169.850 236.944,169.629 236.695,168.403 235.544 L 167.083 234.306 168.322 235.625 M120.278 235.072 C 120.278 235.112,122.747 237.581,125.764 240.558 L 131.250 245.972 125.836 240.486 C 120.806 235.389,120.278 234.875,120.278 235.072 M164.583 279.167 C 166.871 281.458,168.806 283.333,168.882 283.333 C 168.958 283.333,167.149 281.458,164.861 279.167 C 162.573 276.875,160.639 275.000,160.563 275.000 C 160.486 275.000,162.295 276.875,164.583 279.167 " stroke="none" fill="#74c47c" fill-rule="evenodd"></path></g></svg>